<?xml version="1.0" encoding="UTF-8"?>
<!DOCTYPE svg PUBLIC "-//W3C//DTD SVG 1.1//EN" "http://www.w3.org/Graphics/SVG/1.1/DTD/svg11.dtd">
<svg xmlns="http://www.w3.org/2000/svg" version="1.1" width="2048px" height="2048px" style="shape-rendering:geometricPrecision; text-rendering:geometricPrecision; image-rendering:optimizeQuality; fill-rule:evenodd; clip-rule:evenodd" xmlns:xlink="http://www.w3.org/1999/xlink">
<g><path style="opacity:1" fill="#fefffe" d="M 1006.5,-0.5 C 1017.83,-0.5 1029.17,-0.5 1040.5,-0.5C 1062.39,2.85632 1082.39,11.023 1100.5,24C 1106.83,29 1113.17,34 1119.5,39C 1215.94,133.445 1311.78,228.611 1407,324.5C 1407.33,296.167 1407.67,267.833 1408,239.5C 1416.88,185.283 1447.38,149.45 1499.5,132C 1506.06,130.154 1512.73,128.82 1519.5,128C 1572.83,127.333 1626.17,127.333 1679.5,128C 1729.65,136.158 1764.49,163.658 1784,210.5C 1787.43,219.902 1789.77,229.568 1791,239.5C 1791.33,396.167 1791.67,552.833 1792,709.5C 1865.06,781.889 1937.39,854.889 2009,928.5C 2024.42,945.332 2035.76,964.666 2043,986.5C 2044.72,993.259 2046.22,999.925 2047.5,1006.5C 2047.5,1017.83 2047.5,1029.17 2047.5,1040.5C 2036.22,1103.61 1998.89,1140.45 1935.5,1151C 1887.5,1151.5 1839.5,1151.67 1791.5,1151.5C 1791.67,1412.83 1791.5,1674.17 1791,1935.5C 1782.84,1985.65 1755.34,2020.49 1708.5,2040C 1698.9,2043.31 1689.24,2045.81 1679.5,2047.5C 1546.17,2047.5 1412.83,2047.5 1279.5,2047.5C 1279.67,1834.17 1279.5,1620.83 1279,1407.5C 1276.14,1351.59 1249.31,1312.09 1198.5,1289C 1183.69,1283.31 1168.36,1280.31 1152.5,1280C 1066.5,1279.33 980.5,1279.33 894.5,1280C 834.237,1283.95 793.903,1314.29 773.5,1371C 769.989,1382.91 768.156,1395.08 768,1407.5C 767.5,1620.83 767.333,1834.17 767.5,2047.5C 634.167,2047.5 500.833,2047.5 367.5,2047.5C 313.452,2038.3 277.618,2007.63 260,1955.5C 258.154,1948.94 256.82,1942.27 256,1935.5C 255.5,1674.17 255.333,1412.83 255.5,1151.5C 207.166,1151.67 158.832,1151.5 110.5,1151C 47.6533,1139.99 10.6533,1103.15 -0.5,1040.5C -0.5,1029.17 -0.5,1017.83 -0.5,1006.5C 3.29768,981.566 13.131,959.232 29,939.5C 38.6667,928.5 48.3333,917.5 58,906.5C 343.527,620.64 629.36,335.14 915.5,50C 929.356,36.805 944.356,25.1383 960.5,15C 975.045,7.09665 990.378,1.92998 1006.5,-0.5 Z"/></g>
</svg>
